<svg width="24" height="24" viewBox="0 0 24 24" fill="none" xmlns="http://www.w3.org/2000/svg">
<path d="M2 18.005C2 18.555 2.446 19 2.995 19H11.005C11.2689 19 11.522 18.8952 11.7086 18.7086C11.8952 18.522 12 18.2689 12 18.005C12 17.7411 11.8952 17.488 11.7086 17.3014C11.522 17.1148 11.2689 17.01 11.005 17.01H2.995C2.445 17.01 2 17.455 2 18.005Z" fill="black"/>
<path d="M2 12C2 12.55 2.446 12.995 2.995 12.995H21.005C21.2689 12.995 21.522 12.8902 21.7086 12.7036C21.8952 12.517 22 12.2639 22 12C22 11.7361 21.8952 11.483 21.7086 11.2964C21.522 11.1098 21.2689 11.005 21.005 11.005H2.995C2.445 11.005 2 11.451 2 12Z" fill="black"/>
<path d="M2.995 6.99C2.73111 6.99 2.47803 6.88517 2.29143 6.69857C2.10483 6.51197 2 6.25889 2 5.995C2 5.73111 2.10483 5.47803 2.29143 5.29143C2.47803 5.10483 2.73111 5 2.995 5H15.005C15.1357 5 15.2651 5.02574 15.3858 5.07574C15.5065 5.12574 15.6162 5.19903 15.7086 5.29143C15.801 5.38382 15.8743 5.49351 15.9243 5.61423C15.9743 5.73495 16 5.86433 16 5.995C16 6.12567 15.9743 6.25505 15.9243 6.37577C15.8743 6.49649 15.801 6.60618 15.7086 6.69857C15.6162 6.79097 15.5065 6.86426 15.3858 6.91426C15.2651 6.96426 15.1357 6.99 15.005 6.99H2.995Z" fill="black"/>
</svg>
